<?xml version="1.0" standalone="no"?><!DOCTYPE svg PUBLIC "-//W3C//DTD SVG 1.1//EN" "http://www.w3.org/Graphics/SVG/1.1/DTD/svg11.dtd"><svg t="1507073236187" class="icon" style="" viewBox="0 0 2732 1024" version="1.1" xmlns="http://www.w3.org/2000/svg" p-id="3232" xmlns:xlink="http://www.w3.org/1999/xlink" width="533.59375" height="200"><defs><style type="text/css"></style></defs><path d="M9.037711 402.862798c0 0-8.216101 215.535705 223.477935 365.890345s512.958545 46.284033 512.958545 46.284033 132.279219 150.08077 386.156726 114.751538c0 0-90.924846-147.34207-30.399572-302.900241S1296.774539 449.146831 1412.621557 468.317732c115.847018 19.170901 82.708746 128.171169 82.708746 128.171169s-35.876972-114.751538-151.72399-73.671035c-115.847018 41.080503-190.339663 147.34207-118.585718 352.196844 71.753945 204.854774 474.342872 185.683873 526.652046-10.954801 0 0 165.417491 144.60337 330.834983 81.887136 165.417491-62.716234 154.462691-171.990372 154.462691-171.990372s328.096282 117.490238 488.036373-177.467772c0 0-159.940091 73.671035-289.48061-41.080503s-184.862263-161.035571-319.880182-158.296871c-135.017919 2.7387-165.417491 90.103236-154.462691 144.60337 10.954801 54.500134 118.585718 68.193635 118.585718 68.193635s-77.231345 59.977534-148.98529-16.432201-33.138272-231.967906 99.140947-281.264509c0 0-60.799144-199.377374-278.525809-185.683873 0 0 52.309174 182.945173-66.276545 240.184006-118.585718 57.238834-214.987965-5.4774-217.726665-103.796737 0 0 74.492645 139.12597 146.24659 62.716234 71.753945-76.409735 79.970045-267.571008-110.369618-313.855041S1189.417491 96.949987 1175.45012 178.837122c0 0-248.126237-81.887136-435.7272 92.841936 0 0 146.24659 95.580637 90.924846 210.332174-55.047874 114.751538-162.678791 59.977534-179.110992 21.909601 0 0 71.753945 68.193635 124.063118 0 52.309174-68.193635-27.660872-182.945173-146.24659-188.422573-118.585718-5.4774-250.864937 139.12597-286.74191 193.899973S33.959882 550.204868 9.037711 402.862798z" p-id="3233" fill="#e6e6e6"></path></svg>