<?xml version="1.0" standalone="no"?><!DOCTYPE svg PUBLIC "-//W3C//DTD SVG 1.1//EN" "http://www.w3.org/Graphics/SVG/1.1/DTD/svg11.dtd"><svg t="1507073154074" class="icon" style="" viewBox="0 0 2513 1024" version="1.1" xmlns="http://www.w3.org/2000/svg" p-id="578" xmlns:xlink="http://www.w3.org/1999/xlink" width="490.8203125" height="200"><defs><style type="text/css"></style></defs><path d="M8.312915 481.897171c0 0 77.083395 133.762362 308.837392 105.045018 231.502091-28.717343 304.051169-90.686347 327.982288-133.762362 0 0-62.724723-138.548585 130.23567-214.876261s255.685117 19.144895 255.685117 19.144895 9.572448-234.021156 390.707011-248.379828 443.859287 281.883395 414.890037 362.997294-96.480197 162.479705-231.502091 152.907257c-135.021894-9.572448-125.449446-81.113899-111.090775-119.40369 14.358672-38.289791 72.297171-47.862239 72.297171-47.862239s-82.121525-52.648462-125.449446 47.862239 19.396802 210.090037 159.20492 229.234932c139.808118 19.144895 323.196064-133.762362 323.196064-234.021156s-38.541697-176.838376-38.541697-176.838376 221.929643-66.755228 270.295695 81.113899c0 0 361.737761-66.755228 352.165314 229.234932 0 0-9.572448 152.907257-173.563592 210.090037 0 0 9.572448 157.693481-115.876999 172.052153-125.449446 14.358672-159.20492-100.258795-144.846248-205.303813 0 0-106.052645 66.755228-72.297171 148.121033s33.755474 81.113899 33.755474 81.113899-168.777368 109.831242-318.40984-4.786224c0 0 57.938499-210.090037-159.20492-176.838376 0 0 130.23567 9.572448 120.663223 85.900123s-120.663223 186.158918-217.143419 167.265929c-96.480197-19.144895-163.991144-109.831242-154.418696-167.265929 0 0-57.938499 138.548585-371.562116 23.931119 0 0 159.20492-133.762362 77.083395-253.166052s-212.357196-124.189914-231.502091-52.648462c0 0 33.755474-47.862239 96.480197 9.572448s115.876999 248.379828-125.449446 267.524723C510.110701 859.253137 75.823862 739.849446 8.312915 481.897171z" p-id="579" fill="#dbdbdb"></path></svg>